<?xml version="1.0" encoding="UTF-8"?>
<svg data-bbox="161.912 135 2425.199 2007" viewBox="0 0 2740 2293" height="3057.333" width="3653.333" xmlns="http://www.w3.org/2000/svg" data-type="shape">
    <g>
        <path d="M920 152.2c0 39.8 5.1 74.4 15.5 105.2 23.2 68.4 69.8 112.2 129 121.1 8.6 1.3 35.5 1.5 195.8 1.5H1446V178h-196v89h108v24l-142.2-.2-142.3-.3-6-2.4c-21.9-8.8-37.5-27.9-48.4-59.4-7.4-21.5-10.5-41.2-11.7-73.5l-.7-20.2H920v17.2z"/>
        <path d="M1940 151.8c0 29.2-3.5 52.8-11 75.5-11.5 34.4-30.9 56.7-54.1 62.2-5.5 1.3-25 1.5-146.1 1.5H1589v-24h109v-89h-196v202h192.5c112.2 0 192.5-.4 192.5-.9s3.3-1.7 7.3-2.6c54.2-13.1 95.1-54.2 117.2-117.5 10.3-29.7 14.8-57.8 16.1-101l.7-23H1940v16.8z"/>
        <path d="M1173.8 424.7c-131.9.2-239.8.6-239.8 1.1 0 .4 1.1 4.1 2.5 8.3 6.4 20.3 5.5 39.7-3 60.1-8.6 20.4-28 41-53.8 57-17.4 10.9-46.7 23.6-72.2 31.3-14.7 4.4-39.9 10.8-52 13.1-4.9.9-9.4 2-9.9 2.5-.5.4.5 3 2.3 5.8 1.7 2.8 3.1 5.3 3.1 5.6 0 .2-1.5.6-3.2.8-1.8.2 41.5.5 96.3.5l99.7.2.7 2.7c.4 1.6 2.2 10.2 4 19.3 8.6 42.6 14.7 90.5 18.7 146.5 1.7 24.2 1.7 123.8 0 147-7.5 99.3-21.6 174.9-49.8 265.6-24.3 78.4-59.2 161-94.8 224.1l-2.1 3.8-91 .1c-50 .1-158.7.5-241.5.9-159.3.8-154.1.7-177 5.5-76.9 16-134.7 65.3-146.9 125.2-2.9 13.9-2.9 34.6-.1 48.4 9.1 44.5 41 82 90.5 106.5 30.1 14.8 60.2 22.3 97.6 24.4 10.9.6 340.6 1 882.7 1H2100v-32h-874c-592 0-877.2-.3-883.8-1-48.1-5.1-91.6-24.6-118.8-53.2-13.3-14-21.9-28.4-27-45.3-2.5-8.1-2.7-10.6-2.8-24 0-12.3.4-16.4 2.2-22.8 8.9-32.3 34.5-60.3 72.1-79.2 19.2-9.6 38.9-15.7 63.6-19.8 12.8-2.1 15.2-2.1 161-2.4 81.4-.2 184.3-.4 228.6-.6l80.7-.2-1.3 2.6c-.8 1.4-8.1 12.6-16.3 25-22.4 33.7-38.2 54.1-60 77.8l-7.2 7.9 31.5 30.4c17.4 16.6 32 30.4 32.4 30.6 1 .4 15.8-15.2 27.9-29.3 27.7-32.4 66.2-89.5 92.4-137l4.4-8 82.2-.3c45.2-.1 82.2.1 82.2.5 0 .5 1.3 21.8 3 47.4 3.3 52.7 3.6 53.9 12.3 66.1 35.8 50.2 174.6 84.9 371.7 92.9 32.9 1.3 141.9.7 168.5-1 68.6-4.4 110.2-8.9 159.1-17.1 90.8-15.3 153.3-38.7 180.3-67.6 3.7-3.9 8.1-9.9 9.9-13.1 3.9-7.4 6.5-18.2 5.9-24.8-.2-2.7.4-17.8 1.4-33.5 2.4-37.6 5.6-93.2 6.9-120 1.8-38.9 1-157-1.6-220.2l-.7-16.8 215.9-.3c215.4-.2 215.9-.3 228.9-2.4 77.2-12.7 131.1-44.9 149.5-89.4 6.3-15.2 7.9-35.9 4-51.5-13.7-54.6-84.1-96-175.4-103.4-8.2-.6-77-1-189.7-1H2043v30.9l182.3.4c192.1.4 185.6.2 212.7 5.2 41.3 7.5 76 23.6 97.4 45.1 8.5 8.5 13.1 15.3 17.4 25.6 2.3 5.5 2.6 7.7 2.6 16.8 0 16.9-4.9 27.3-19.9 42.6-23.4 23.8-59 39.3-110 47.7-13 2.1-13.4 2.1-226.1 2.4l-213.1.3-.7-15.2c-4.7-104.7-47.1-227.2-106.7-307.8-17.3-23.5-42.3-49.5-61.6-64.3-36.5-27.8-80.9-47.2-132.1-57.7-21-4.3-38.2-6.7-68.5-9.5l-26.4-2.5-8.4-8.4c-7-7-9.9-9.1-17.9-12.9-13.4-6.3-21.7-8.2-37-8-14.8.1-24.3 2.2-36.6 8.3-8.3 4-20.6 14.3-23.3 19.3-1.4 2.7-3.4 3-23.6 4.2-23.4 1.3-29 1.7-40.3 3.1-32.3 3.8-57.4 10.5-90.1 24.1-44 18.2-70.2 35.2-99.1 64.2-18.2 18.3-28.2 30.6-43.6 53.7-53.5 80.2-89.7 192.6-94.4 293.4-.5 10.7-1.8 30.5-2.9 44-4.2 51.5-6.7 105-7.7 162.5-.6 35.6-.1 56.8 2.3 103.7l.6 12.8H922l5.9-11.8c44.5-88.8 86.2-211.6 107-314.7 26.3-130.3 30.9-269.5 13.5-403.3-2.7-21-8.2-55.3-11.2-70l-1.9-9.2 582.1-.2c320.1 0 580.6-.3 578.9-.5-1.8-.2-3.3-.7-3.3-1 0-.3 1.4-2.8 3.1-5.5 1.6-2.8 2.8-5.2 2.6-5.5-.3-.2-8.5-2.2-18.3-4.4-73.5-16.4-124.3-41.2-149.9-73.2-20.3-25.4-26-54.9-16.1-83.7 1.8-5.2 3.6-10.3 4-11.3.9-1.8-3.2-1.8-844.6-1zm372.1 232.9c25.9 6.6 45.1 28.2 45.1 50.4-.1 32.7-36.5 58.1-74.5 52-27.3-4.4-47.9-22.4-51.7-45.3-4.5-27.5 19.5-54.1 53.2-58.8 7-.9 20.8-.1 27.9 1.7zm78.6 29.9c82.8 8.8 142.7 34.7 190 82 27.3 27.3 50.1 60.4 72 105 28.7 58.3 48 121.4 56.5 184.9 3.1 22.4 4.8 62.6 7 161.6 2.2 97 .8 152.1-6.5 261.5-.8 12.1-1.5 26.3-1.5 31.6 0 17-5.2 28.2-19.1 41.4-37.7 35.6-133.6 61.7-265.9 72.4-48.7 4-64.6 4.6-128.5 4.6-64.3 0-82.5-.6-129.5-4.6-164.9-13.7-268.7-49.7-283-97.9-2-6.7-2.2-9.6-6-74-5.4-92.5-6.4-127.2-5.1-178.5 1.4-52.9 5.4-129.8 7.6-145.6.2-1.9.9-13.2 1.5-25 1.7-34.9 4.4-57.6 10.5-87.9 22.5-111.8 74.4-213.9 134.4-264.2 27.4-22.9 63.9-42 102.3-53.2 22.3-6.6 56.8-13 82-15.1l7.6-.7-1.4 4.3c-2.9 8.3-3.9 19.2-2.6 27.6.7 4.3 1.3 8.7 1.4 9.8.3 1.7-.7 2-10.7 3.2-75.3 8.8-129.2 33.5-167.6 76.8-10.9 12.3-35 45.8-33.7 47 .2.1 9.1-.8 19.8-2.2 24.2-3 53.2-3.4 118.5-1.5 24.8.7 64.1 1.7 87.5 2.1 41.6.6 42.6.7 47.2 3 8.2 3.9 11.3 10.9 8.8 20.1-1.6 5.9-6.9 11.1-14.5 14.1-5.6 2.2-7.3 2.4-25 2.4-17.9 0-19.7-.2-30.5-3-24.3-6.3-48.1-2.3-50.5 8.5-.9 4.2 2.9 11.8 7.4 14.8 7.6 5 11.2 5.4 50.6 6.3 37.3.8 50 1.9 62.5 5.5 15.2 4.4 21.1 11.7 19.7 24.1-.8 7-5.9 12.7-12.9 14.2-5.9 1.4-46.9-.7-60-2.9-19.3-3.3-34-2.4-50.5 3.1-7.2 2.3-11.8 5.2-14.7 9.2-1.9 2.6-1.9 3-.6 5.5.9 1.5 3.9 4 6.7 5.5 4.5 2.4 7.3 3 20.5 4.2 22.8 2.2 50 3.5 70.3 3.5 20 0 27.5 1.3 33.2 5.6 4.8 3.7 6.6 7.8 6 13.8-.4 4.1-1.1 5.5-4 8.2-1.9 1.8-5.3 3.7-7.4 4.2-2.1.6-41.2 1.4-90.3 1.9-107.7 1-124.2 1-151-.1-15.3-.6-23.9-.5-30 .4-18.7 2.5-20.4 2.5-26.6-.5-11.1-5.4-14.6-16.5-8.4-27.1 3.5-6.2 7.6-9.8 15.4-13.5 7.8-3.7 14.5-4.4 27.7-2.8 9.5 1.1 13.7 1 32.2-.5 16.3-1.3 23.2-1.5 29.7-.7 4.7.5 9.2 1.2 10.1 1.6 2.4.9 7.7-4 9-8.3.6-2 .9-5.5.7-7.7-.5-7 .2-6.9-54.8-7.6-26.7-.4-51.9-1.2-56-1.8-17-2.5-24.8-6.3-27.6-13.7-1.6-4.1-1.6-4.7.1-9 2.7-7.2 10.8-11.5 25.5-13.6 4.3-.6 27.3-1.1 53.5-1.2 40-.2 46.7-.5 51.1-1.9 7-2.3 8.9-4.7 8.8-10.8-.1-10.5-6.1-13.5-30.4-15.1-8.5-.5-25.1-.7-36.7-.4-30.5.9-41.7-1.4-49.3-10.1-3.8-4.3-3.1-4.9-10.7 10.7-9.1 19-18.1 41.3-25.3 63-17.7 52.7-26.5 98.6-29 149.6-.5 10.9-1.6 28.2-2.4 38.4-6.8 82.4-9 185.2-5.3 251 4.8 86.2 7 120.9 7.8 124.3 5.3 20.5 81.2 46.6 174.9 60.1 109.6 15.7 253.9 16.5 367 2.1 83.1-10.7 152-29.8 180.6-50.1 8-5.6 9.7-8.4 9.5-15-.1-2.8 1-23.3 2.4-45.5 5.1-82.8 5.7-96.4 6.2-149.9.5-54-.7-127.7-2.9-173-.6-12.9-1-28.5-1-34.5.5-61.1-21.5-147.5-55.2-217-42.5-87.6-90.3-132.1-163.8-152.5-14.3-4-37.3-8.5-53.3-10.5-7.1-.8-14.8-1.8-17.1-2.1l-4-.5 1.9-7.2c2.3-9 1.8-17.7-1.7-27.9-1.4-4.1-2.6-7.7-2.6-7.9 0-.6 1.8-.4 21.5 1.6zm110 112.1c17.1 3.7 31.1 6.8 31.2 6.8 0 .1-1.2 3.9-2.7 8.6-4 11.8-5.4 23.8-4.7 39.5 1.4 30.9 10.4 48.3 29.8 58 4.1 2.1 12.8 7.2 19.4 11.4 16.6 10.6 21.7 13.5 31 17.2 10.4 4.1 13.3 6.3 15.7 11.6 2.5 5.6 1.7 9.3-2.9 14.4-5.1 5.7-14.3 8.4-28.3 8.4-12.4-.1-16.5-1.5-26-9.4-3.3-2.8-7.7-5.5-9.8-6-5.4-1.4-25-3.3-29.7-2.9l-4 .3-.8 5.5c-.5 3-.7 10-.5 15.5.4 8.5.8 10.8 3.2 15.4 3.8 7.4 10.9 13.9 21.8 19.8 20 10.9 71.9 38.4 82.8 43.8 9.3 4.6 12.6 6.8 17.2 11.7 7.5 7.9 10.2 13.5 9.5 19.4-.9 8.7-9.3 14-21.1 13.2-5.7-.3-8.3-1.3-20.3-7.5-7.6-3.9-21.9-10.1-31.8-13.8-21-7.8-31.6-12.7-40.1-18.4-7.2-4.8-11.5-5.4-13.8-1.9-3.6 5.7-4.6 27.1-3.2 69.8.9 29.2 1 28.5-5.4 56.5-6.6 28.5-7.1 42.9-1.8 46.8 2.2 1.7 4.7 2 16.5 2.5 11.7.4 14 .2 15.1-1.1 1-1.2 1.3-11.4 1.2-47.9 0-25.5-.3-49.1-.6-52.5-.6-6.3-.6-6.3 3.2-10.2 3.1-3 5.2-4.1 9.9-5.1 7.7-1.6 17.9-.7 24.4 2.1 6.1 2.6 12.3 9.1 13.9 14.6.6 2.1 1.8 12.6 2.8 23.3 1.8 21.6 1.5 37-1.1 49-4.6 21.1-4.7 21.9-5.4 63-.7 38.6-.8 40.8-3 47-7.5 21.4-28 41.5-59.1 57.8-13.4 7-16.7 7.6-38.9 6.8-39-1.5-60.4-5.7-81.6-16.3-21.5-10.8-36.8-28.6-42-48.8-.9-3.4-2-14.7-2.6-26-.5-11-1.9-30.1-3-42.5-1.1-12.4-2.3-30.2-2.6-39.5-.6-20.1.6-28.4 9.1-62.8 6.2-25.5 7.7-28.4 17.1-33.2 5.4-2.8 6.7-3 15.9-3 8.6 0 10.8.4 15 2.4 5.8 2.9 10.3 8.7 11.1 14.5.4 2.7-.5 12.6-2.7 27.1-2.9 20.5-3.3 25.4-3.3 45 0 25.3.8 29.5 5.8 32.5 3.9 2.4 16 2.7 21.2.6 6.7-2.8 6.4.3 6.9-79.8.3-62.5.6-73.5 2-80.8.9-4.7 2-10 2.3-11.8l.6-3.2h-6.2c-11.7 0-24.3 5.7-45.9 20.8-17.6 12.3-26.5 17-40.2 21.2-5.8 1.8-13.4 4.6-17 6.2-4.6 2.1-8.7 3.2-13.7 3.5-6.4.5-7.9.3-12.8-2.1-7-3.5-10.8-8.2-10.8-13.6 0-7.3-1.4-6.1 38.8-33.7 48.6-33.5 68.1-46.1 88.9-57.3 5.3-2.8 10.4-6.4 11.5-7.8 5.9-8.5 9.1-18.4 9.1-28.5 0-6.5-.1-6.8-3.2-8.7-5.8-3.5-12-2.7-32.4 4.1-13 4.3-21.1 7.7-28 11.6-11.5 6.6-16.6 8.3-24.9 8.3-10.5 0-16.7-3.1-21.6-10.8-2.2-3.4-2.9-5.8-2.9-9.4 0-6.2 1.5-9 8.2-15.4 8.7-8.4 13.7-11.8 25.6-17.9 6.2-3.1 16.6-9.4 23-13.9 22.9-16.1 35.1-22.6 50.1-26.9 4.6-1.4 9-3.2 9.7-4.2 2.7-3.7 3.7-15.5 3.1-38.4-.7-27.8-1.7-33.4-8.7-44.7-2.7-4.5-5-8.4-5-8.7 0-.3 2.6.1 5.8.8 3.1.7 19.7 4.4 36.7 8.1zm-225 243.5c2.3.7 5.7 2.8 8.1 5.3 3.5 3.5 4.7 5.7 7.3 14.1 5.5 18.2 6.5 25.8 6.3 48.9-.2 23.2-.8 29.4-5.7 54.6-1.8 9.6-3.8 20.9-4.4 25-2 14.3-3.2 41.7-3 69 .2 25.9.1 27.8-1.9 32.9-5.3 13.5-11.5 18.6-33.4 27-17.4 6.8-24.8 14.1-24.8 24.8 0 6.9 1.5 11.3 8.2 24.7 13.6 27.3 29.1 49.2 75.9 107.7 20.2 25.2 22.2 27.3 37 37.7 9.3 6.6 13.5 10.9 14.5 14.8 1.5 5.8-2.8 11.9-11.4 16.1-5 2.4-6.9 2.8-14.7 2.8-7 0-10.4-.5-15-2.3-6.8-2.6-8-3.4-31.6-23.3-20.7-17.4-31.8-28.8-37.9-38.7-2.5-4.1-6.9-10.1-9.9-13.5-3-3.4-6-7.8-6.8-9.7-2-4.6-1.1-10.2 2.2-14.5 1.8-2.5 2.2-3.6 1.3-3.9-15.3-4.1-22.5-8.1-28.8-16.1-1.8-2.2-5.8-9.2-9.1-15.5-3.9-7.7-9.2-15.8-16-24.5-11-14-18.8-25.4-20.8-30.2-1.5-3.8-4.8-5.3-11.2-5.3-8.6 0-10.5 1.5-23.2 17.6-12.3 15.6-14.5 19.4-20 33.5-4.3 11.2-10.2 21.3-19.7 34.1-10.2 13.5-15.7 19.6-50.9 55.4-27.7 28.2-30 30.2-35.6 32.3-8.3 3.2-15 3.7-21.6 1.7-15.7-4.5-23.9-18.8-17.9-31.2 2.4-4.8 2.4-4.9 25-21.5 15.5-11.5 38.8-34.6 48.3-47.9 9.8-13.8 17.2-28.9 23.4-47.9 5.4-16.5 7.2-25.5 5.9-30.6-1.6-6.5-14-15.4-27.1-19.5-19.1-5.9-31.9-20.3-37.4-42-6.3-24.8-7.4-76-2.8-133 3.1-38.4 3.7-48.5 4.1-72.5.4-20.9 1.3-24.3 8.2-30.3 5.1-4.6 10-6.2 18.5-6.2 10.6 0 15.1 4 17.5 15.5 4.7 22.3 22 36.3 50.4 40.5 5.7.9 10.9 2.8 22 8 17.3 8.3 22.1 9.5 29.9 7.9 15.4-3.1 93-31.4 97-35.4.9-.8 1.7-5.2 2.2-11.5.6-6.1 1.7-12 2.8-14.5 4-9.1 15.3-13.5 26.6-10.4z"/>
        <path d="M1673.7 1280.7c-5.1.8-6.2 4.1-6.5 19.8-.5 21.1-.5 21.2 20.3 28.2 33 11.1 55.3 9.4 70-5.2 6.7-6.8 14.5-21.7 14.5-27.9 0-5-.5-5.8-5-8.2-3.1-1.6-7-1.9-31.5-2.5-17-.4-31.5-1.3-37-2.2-10.1-1.7-20.6-2.5-24.8-2z"/>
        <path d="M1451 1132.6c-18.3 5.3-30.2 12.9-35 22.5-2.8 5.5-5 15.8-5 24.1 0 4.9-.6 7.9-2.2 10.9-3.1 6-3.8 5.7 23.7 7.8 7.2.5 15 1.7 17.4 2.5 5.5 2 10 2 12.8.1 2.5-1.7 12.5-14.7 14.8-19.1 2.4-4.6 1.8-13.9-1.6-26.9-1.6-6.5-3.3-14.6-3.6-18.1l-.6-6.4-6.1.1c-3.4 0-9.9 1.1-14.6 2.5z"/>
        <path d="M1284.2 1132.6c-4.5 3.2-5.2 6.2-5.2 24 0 14.9.2 17.3 2.1 21 5 10.5 22.3 17.6 42.4 17.5 18.3 0 31-5.4 36-15.1 2.4-4.6 1.6-13.9-1.8-20.6-6.4-12.7-22.1-20.9-50.1-26.3-12.9-2.5-20.3-2.7-23.4-.5z"/>
        <path d="M1293.1 1229.9c-5 1.3-7.7 4.7-10.5 13.8-4.9 15.8-4.4 23.2 2.1 30.4 5.1 5.6 13.2 9 34.1 14.3 26.1 6.6 31.4 6.1 37.3-3.2 3.5-5.6 3.8-10.4.8-18.8-1.1-3.2-2.3-9.3-2.5-13.4-.7-10.4-1-11.5-4.5-15.5-5.3-6-12.9-7.8-34.9-8.1-10.2-.2-20 .1-21.9.5z"/>
        <path d="M1417.3 1237c-10.9 2.2-13.9 7.2-13 21.7.6 11 3.6 30.5 4.8 31.8 2.9 3 25.6.9 37.4-3.5 8-3.1 15.4-10.5 17.9-18 2.6-7.9 3.5-28 1.3-29.8-1.1-.9-7.5-1.6-19.9-2.2-21.2-1.1-22.9-1.1-28.5 0z"/>
        <path d="M851.1 1866c-2.3 1.7-5.4 5.1-6.9 7.6-3.1 5.1-2.6 4.9-18.7 6.4-6.6.6-13.7 1.5-15.8 2.1-5.8 1.5-9.3.3-13.4-4.7-3.2-3.8-4.3-4.4-7.4-4.4-5.4 0-8.8 1.6-9.4 4.3-.4 1.4.1 8.3.9 15.4.9 7.1 1.6 17.6 1.6 23.4 0 12.6.9 14.5 6.3 13.6 9.1-1.4 11.6-5.9 12.8-22.1.5-6.6 1.2-12.2 1.5-12.5.3-.3 20.7-.6 45.2-.6 40.2.1 55.4.7 78.3 3.1l5.6.6-2.4 9.7c-2.8 11.7-2.8 12.7-.3 16.8 4.7 7.7 13.1 3.7 22.9-11 11.5-17.1 8.6-31.7-5.5-27.9-7.3 2-16.9 1.4-45.8-2.8-15.1-2.2-29.4-4-31.6-4-4.4 0-4.6-.3-2.5-4 2.3-4 1.8-7.6-1.1-9.9-3.9-3.1-9.2-2.7-14.3.9z"/>
        <path d="M1500.2 1866c-2.3 1.6-5.4 4.9-6.8 7.2-1.5 2.4-3.1 4.6-3.7 4.9-.5.4-5.5 1-11.1 1.4-5.5.3-13.3 1.3-17.3 2.1s-8.4 1.2-9.8.8c-1.4-.3-4.2-2.6-6.1-5-3.1-3.8-4.2-4.4-7.5-4.4-5.4 0-8.7 1.5-9.4 4.3-.4 1.4.1 8.3.9 15.4.9 7.1 1.6 17.6 1.6 23.4 0 12.6.9 14.5 6.4 13.6 9-1.4 12.1-7.2 13-23.6.4-5.8.8-10.7 1.1-10.9 1.1-1.1 67-1.3 86-.3 18.1 1 42.7 3 43.1 3.4.1.1-1 4.8-2.4 10.3-2.7 11-2.5 14.2 1.1 17.8l2.2 2.2-5.8-.4c-3.6-.3-6.2 0-7.2.8-3.7 3.1.1 12 6.5 15.2 6.5 3.3 13.1 1.8 17.3-3.8 2.5-3.3 1.7-4.8-4.3-8.2-4.9-2.8-5-3-2.5-3.6 5.4-1.4 15.8-13.4 20.5-23.9 5.5-12 0-21.7-10.6-18.9-7.3 2-16.9 1.4-45.8-2.8-15.1-2.2-29.4-4-31.6-4-4.4 0-4.6-.3-2.5-4 2.3-4 1.8-7.6-1.1-9.9-3.9-3.1-9.2-2.7-14.2.9z"/>
        <path d="M2152.3 1875c-4 2.4-7.8 8.1-9.3 14-.7 2.5-1.7 4.8-2.4 5.2-.6.4-6.9.8-14.1.8-15.4 0-19.4.9-24.1 5.6-2.9 3-3.5 4.2-3.2 7.2.3 3.2.9 4 4.8 6.2 4.2 2.3 5.6 2.5 21.3 2.8l16.7.4v3.3c0 4.2-3.5 7.2-9.3 8-35.8 4.8-48.8 8.4-56.6 15.8-3.8 3.7-8.1 11.9-8.1 15.9 0 2.9 2.3 5.8 4.5 5.8.8 0 9-2.3 18.2-5.1 20.5-6.2 33.5-9.3 47.4-11.3 10.9-1.6 26.4-2.1 33.2-1 3.4.6 3.7.9 3.7 3.9 0 1.8-.6 3.7-1.2 4.3-.7.5-10.1 1.5-20.8 2.2-21 1.2-26.1 2-31.9 4.9-4.9 2.6-10.5 8.4-12.7 13.3-1.8 4-1.8 4.1.5 5.9 3.2 2.6 9.8 2.5 32.1-.6 18.9-2.6 24.5-2.9 30-1.8l3.3.6-.7 10c-.7 11.3-2.6 16.5-7.6 21.5-8 8-15.8 9.2-24 3.7-2.9-2-5.5-3.3-5.8-3-1.2 1.2 3.5 10.4 7.6 14.7 9.8 10.5 24 13.3 35.9 7.2 6.8-3.5 11.6-9.3 13.8-16.6 1.9-6.5 1.9-18.7 0-25.8-.8-3-1.2-6.2-.9-7.2.5-1.8 4.9-4.1 10.9-5.7 5.8-1.5 8.3-3.6 9.6-8.1 2.4-7.9-2.2-12.2-14.6-13.6-5-.6-5.5-.9-5.5-3.1 0-1.3.8-2.7 1.7-3 1.8-.7 13.2 2.1 22.5 5.6 10.3 3.8 18.3 2.2 26.6-5.4 5.4-4.8 8.2-10.8 8.2-17.4v-5.3l-10.2.9c-14.9 1.2-28.2.7-46.3-1.6-8.8-1.1-20.5-2.4-26-2.7l-10.1-.7.4-3.3c.2-1.8 1-3.8 1.8-4.5.8-.7 8.6-1.4 20.1-1.8 21.1-.8 23.6-1.5 27.7-7.9 2.5-3.9 4.1-10.2 3.2-13-.5-1.6-1.9-1.6-19.8-.5-10.6.6-20.9 1.2-23 1.2l-3.6.1-.4-9.1c-.3-8.5-.5-9.2-3.1-11.5-3.4-2.9-6.2-3-10.4-.4z"/>
        <path d="M1280.4 1883.4c-2.2 1.8-3.6 4.3-4.9 8.7-3 11-3.5 22.6-2 51.4.8 14.8 1.5 28.8 1.5 31v4.1l-16.2 4.8c-9 2.6-18 5.2-20.1 5.8-4.7 1.4-5.4.8-7.2-6.3-2-7.4-1.9-10.4.9-26.1 2.7-15.2 2.4-19.2-2-23.3-2.9-2.7-9.7-4.6-13.6-3.8-3.6.7-7.5 4.4-8.4 7.8-.4 1.6.2 6.5 1.4 11.9 3.1 13.3 4.5 30.3 3.8 44.1-.5 10.8-.4 12.3 1.4 15.2 3.5 5.9 11.2 8.3 18.1 5.8 13.6-5.1 18.8-6.6 30-8.9 23.8-4.9 56.8-7 71.6-4.6 3.4.6 11.2 2.6 17.4 4.5 13.5 4.2 20.1 4.6 22.4 1.2 2.7-4.2 5.2-16.9 6.5-32.7.6-8.5 1.9-18.9 2.7-23 .9-4.1 1.8-10.5 2-14.2.4-5.7.1-7.4-1.8-10.8-3.3-5.9-7.8-8.4-14.1-7.8-3.6.4-5.7 1.2-7.5 3-4 4-6.2 15.4-7.5 37.5l-1.1 19.3H1302v-11.8c0-21 1.8-40.9 4.6-51.2 3.2-11.7 3-19.9-.5-24.8-2.9-4.2-10.9-8.2-17.5-8.9-4.5-.5-5.6-.2-8.2 2.1z"/>
        <path d="M1021.4 1882.6c-.5.1-2.1.5-3.6.8-3.5.8-8.8 5.3-8.8 7.6 0 1 1.9 6.7 4.3 12.7 2.4 5.9 4.9 13 5.7 15.6.8 3.1 2.2 5.4 3.8 6.5 2.2 1.5 3.1 1.5 11.1-.1 4.7-.9 10.5-1.9 12.8-2.2 8.3-1.3 14.4-7.7 18.3-19.5 1.2-3.6 2.4-9.2 2.7-12.6.7-7.5.6-7.5-13.2-8-19.4-.7-32.1-1-33.1-.8z"/>
        <path d="M1099.5 1883.6c-2.2.8-5.2 2.7-6.8 4.2l-2.9 2.7.6 10.4c.7 10 1.6 13.8 4 15.3.6.4 7.6.5 15.6.2 12.1-.5 15.3-1 19.6-2.9 6.6-2.9 12.9-9.2 16-15.8 4.6-9.9 2.7-12.7-8.7-12.7-4.1 0-11.4-.7-16.4-1.5-11.1-1.8-15.8-1.8-21 .1z"/>
        <path d="M1666.7 1883.4c-4.6 1.7-8.7 5.3-8.7 7.6 0 .9 1.9 6.6 4.3 12.6s4.9 13.1 5.7 15.7c.8 3.1 2.2 5.5 3.8 6.5 2.2 1.5 3.1 1.5 11.1-.1 4.7-.9 10.5-1.9 12.8-2.2 8.1-1.2 13.9-7.2 18.2-18.9 1.2-3.3 2.5-8.8 2.8-12.2.5-5.4.3-6.3-1.3-7.2-1.1-.5-8.2-1.2-15.9-1.6-7.7-.4-17.4-.9-21.5-1.2-5.1-.3-8.7 0-11.3 1z"/>
        <path d="M1749.2 1883.3c-1.8.7-4.8 2.5-6.7 4-3.2 2.5-3.5 3.2-3.5 8 .1 9.4 1.7 19 3.5 20.3 1.2.9 5.7 1.1 16.3.7 17-.6 22.1-2.2 29.2-9.3 4.1-4.1 9-12.9 9-16.3 0-3.9-3.6-5.7-11.2-5.7-4 0-11.3-.7-16.3-1.5-10.6-1.7-15.8-1.8-20.3-.2z"/>
        <path d="M1990.1 1892.5c-5.5 2.5-11.5 8-14.1 12.9l-2.5 4.5 2.1 2.8c3.9 5.3 7.4 6.3 23.2 6.3 19.6 0 24.2-2.2 24.2-11.6 0-9.2-8.7-15.7-22-16.2-5.1-.1-8.6.3-10.9 1.3z"/>
        <path d="M1940.7 1893.1c-2 .5-7.4 2.9-11.8 5.5-7.9 4.5-8.1 4.5-9.5 2.6-2-2.9-6.3-3.9-18.8-4.7-6-.3-14-1.2-17.8-2-9.4-2-14.1-1.9-19.8.6-5.6 2.4-6.7 4.2-4.5 7.5 1.7 2.7 7 4.4 13.5 4.4 2.5 0 10.6.9 18 2.1 9 1.3 15.6 1.8 19.6 1.4 5.9-.6 6.2-.5 6.8 1.9 1.6 6.5 10.4 12.5 18.4 12.6 6.7 0 24.1-2.9 27.4-4.6 7.8-4 7.8-20.8 0-24.7-1.5-.8-5.2-1.7-8.2-2.1-3-.3-6.4-.8-7.5-1-1.1-.3-3.7 0-5.8.5z"/>
        <path d="M872.2 1901.7c-4.2 2-10 8.8-11.1 12.8-2 7.5 2.3 9.7 14.3 7.2 4.6-.9 9.5-1.7 10.8-1.7h2.5l-2 5.7c-3.2 9.5-1.3 17.9 5 22 2.6 1.7 2.6 1.7 5.4-1.7 3.5-4.2 4.5-10 2.9-17.6-.7-3.2-1.4-6.3-1.6-6.9-.3-.6 2.7-.9 8.5-.7 13 .5 17.9-2.1 19.4-10.4.6-3.1.5-3.2-4.1-3.8-2.6-.4-11.8-1.1-20.4-1.6-13.3-.7-16.3-1.2-19.2-2.9-4-2.5-6-2.6-10.4-.4z"/>
        <path d="M1521.5 1901.6c-4.4 2.3-8.2 6.2-10.5 10.9-2.5 5.1-2.5 6 0 8.5 2.4 2.4 7.5 2.6 14.4.5 2.7-.8 6.5-1.5 8.4-1.5 2.8 0 3.3.3 2.7 1.7-3.7 9.7-3 19 2 24 1.8 1.8 3.8 3.3 4.3 3.3 2.1 0 6.1-6.2 6.7-10.4.4-2.5.1-7.2-.7-11.2l-1.4-6.9 8 .3c4.5.2 9.8-.1 11.8-.7 4.6-1.4 7.8-5.4 7.8-9.6 0-3-.3-3.3-4.2-3.9-2.4-.4-11.4-1.1-20.1-1.6-13.2-.8-16.4-1.3-19.1-3-4-2.4-6.1-2.5-10.1-.4z"/>
        <path d="M820.3 1904c-4.9 1.1-9.6 4.3-11.6 7.8-1.1 1.8-1.7 3.5-1.4 3.9.3.3 3.7.8 7.4 1 11.7.9 11.9 3.7.5 7.2-7.8 2.4-12.3 6.1-10.6 8.9 2 3.1 5.6 4.3 11.7 3.8 3.1-.2 5.7-.2 5.7 0 0 1.1-8.5 4.4-15.5 5.9-11.5 2.5-16.3 5.5-18.6 11.4-1.1 2.8.6 9.1 2.4 9.1 4.3-.2 19-3.6 35.7-8.4 16.8-4.8 19.9-6 22.3-8.6 6-6.7 2.5-10.4-10.8-11.2l-4-.3 5-1.9c6.3-2.4 8.5-4.3 8.5-7.1 0-3-2.3-4.8-7.3-5.5l-4.2-.6 7.3-2.2c10.3-3.2 13.3-6.6 9.5-11-1.6-1.8-3.4-2.1-15.3-2.5-7.4-.3-14.9-.2-16.7.3z"/>
        <path d="M1469.5 1903.9c-5.3 1.4-9.5 4.1-11.5 7.4-3.2 5.2-2.8 5.7 4.8 5.7 3.7 0 7.3.4 8.1.9 2.4 1.5.4 3.9-4.1 5.1-2.4.6-6.6 2.5-9.5 4.2-4.4 2.7-5 3.4-4.2 5 1.8 3.3 6.8 5.1 12.8 4.5 5.1-.5 5.4-.4 3.6.9-1.1.8-5.1 2.4-9 3.5-15.5 4.5-17.7 5.3-20.6 8-2.3 2.2-2.9 3.5-2.9 7.1 0 6.7.6 7.1 8.6 5.8 3.8-.6 16.4-3.8 27.9-7 18.2-5.2 21.4-6.4 23.8-9 5.8-6.4 1.8-11-9.4-11-5.6 0-5.8-1.5-.4-2.6 5-.9 8.5-4 8.5-7.4 0-3.5-1.1-4.3-7-5l-4.5-.6 8.3-2.8c9.6-3.2 11.7-5.6 8.8-10.1-1.5-2.2-2.3-2.5-8-2.5-3.5 0-9.6-.2-13.7-.5-4.1-.2-8.7-.1-10.4.4z"/>
        <path d="M1072.3 1916.4c-9.4 8.4-15 10.5-36.9 14.1-8.7 1.4-16.4 3.1-17.1 3.8-.6.7-1.6 6.2-2.2 12.3-1.1 12.3-3.1 18.7-8 25.8-8 11.6-14.5 15.5-25.8 15.6-12 0-15.6 3.4-9 8.4 5.4 4.1 10.6 5.8 17.7 5.8 14.7-.2 25.3-6.9 33-21.1 1.4-2.5 3.3-4.7 4.2-4.9 1.5-.3 1.7.9 1.2 14-.3 7.9-.7 15.3-1 16.5-.2 1.2-2.4 3.6-4.8 5.2-4.8 3.4-8.6 8.6-8.6 12 0 5.3 10.5 5.2 24.7-.3 10-3.9 12.3-4.3 12.3-2.3 0 4.5-9.6 12.7-14.8 12.7-3.5 0-3.4 1.8.2 5.7 3 3.3 4 3.8 7.9 3.8 8.7 0 19.8-10.2 21.3-19.6.7-4.4.7-4.4 6.4-2.4 6 2.1 18.1 1.9 26.4-.5 6.6-1.9 7.1-1.9 10.5-.3 2 1 7 5.3 11.1 9.7 16.2 17.3 17.4 18.4 22.4 19.1 10.4 1.6 23.2-3.1 31.6-11.4 3.9-3.9 9-11.5 9-13.4 0-.2-3-.7-6.7-1-13.8-1.3-28.7-6.6-44.1-15.7-5.6-3.3-10.6-6.9-11.2-8-.7-1.4-.4-5 1.5-13.7 1.4-6.5 2.5-12.1 2.5-12.5 0-1.3-10.2-3-14.3-2.4-4.6.7-11.8 4.4-12.5 6.3-.2.9.7 1.3 2.8 1.3 6.2 0 9.6 6.5 7 13.5l-1 2.6-5.2-3.1c-14.4-8.4-18.9-10.2-24.3-9.8-2.8.2-6.2 1.2-7.4 2l-2.3 1.6 4.5 4.5c2.4 2.5 8.8 7.4 14.1 11l9.7 6.5-4.7 1.6c-8.8 3-19.9 1.6-25-3.1-1.8-1.7-2.4-3-2-4.6.3-1.2.6-6.4.7-11.5.3-12.4 0-12.7-12.6-12.7-6.9 0-9.5-.3-9.5-1.3 0-.9 2.9-1.2 11-1.2 13.4 0 20-1.3 23-4.5l2.3-2.5 1.5 2.1c1.2 1.7 2.1 2 5.2 1.5 2.1-.3 6-1.7 8.6-3.1 5.9-3 9.8-3.2 26.6-1.5 13.9 1.4 18.3 1 22.2-2.1 3.8-3 6.2-7.9 4.4-9-4.4-2.9-12.8-4.3-25.8-4.1-7.4.1-14.1-.3-14.9-.7-1-.7-.9-1.6.6-5.2l1.9-4.4h7c11.1-.1 19.5-5.6 21.4-14.2l.8-3.3H1085v-3.5c0-4.2-2.9-7.5-6.5-7.5-1.4 0-4.1 1.4-6.2 3.4zm17.5 24.4c1.6 1.1.1 8.6-3 15l-2.1 4.4-8.1-.7c-4.4-.4-8.2-.9-8.4-1-.2-.2.4-1.7 1.3-3.5.9-1.7 1.5-4.1 1.3-5.3-.3-1.9-1.2-2.3-7.8-3-4.1-.5-11.2-.6-15.8-.2-7.4.6-8.8 1-11.8 3.8-3.2 2.8-3.4 3.1-1.9 4.6 1.3 1.3 3.6 1.6 12 1.4 5.8-.1 10.5 0 10.5.2 0 1.5-9 4.6-14.2 5.1-3.5.2-7.8.7-9.7.9l-3.3.4.7-9.2c.4-5.1.8-9.3.9-9.4.3-.4 27.5-3.1 34.6-3.6 11.5-.7 23.6-.6 24.8.1z"/>
        <path d="M1721.3 1916.4c-9.3 8.3-15.3 10.6-36.4 14-8.1 1.3-15.5 2.9-16.7 3.5-1.7.9-2.1 2.4-2.7 9.8-1.3 16.8-5 26.2-14.2 35.8-6.2 6.5-10.8 8.5-19.7 8.5-12.6 0-16.1 3.2-9.3 8.4 5.4 4.1 10.6 5.8 17.7 5.8 14.7-.2 25.3-6.9 33-21.1 1.4-2.5 3.4-4.7 4.4-4.9 1.8-.4 1.9.1 1.3 5.8-.4 3.5-.7 10.7-.7 16.1v9.9l-5 3.6c-8.5 6.1-11.5 13.3-6.4 15.6 3.5 1.6 13.9-.2 23.9-4.2 9.3-3.7 10.9-3.8 9.9-.8-1.8 5.8-7.3 10.4-14.7 12.2l-2.8.7 1.8 2.9c2.3 3.9 7.5 6.4 11.8 5.6 8.4-1.6 18-11.8 19.2-20.4l.5-3.9 4.9 1.8c6.1 2.3 18.5 2.5 25.5.4 11.3-3.4 14.5-1.8 29 14.7 5.8 6.6 11 11.6 13 12.4 11.3 4.7 32.1-3.7 40.2-16.3 4.6-7.2 4.4-7.9-3.1-8.7-13.5-1.4-28.4-6.7-43.3-15.5-5.5-3.3-10.6-6.7-11.4-7.5-1.1-1.4-.9-3.6 1.4-13.9 1.4-6.7 2.6-12.5 2.6-12.9 0-.4-2.5-1.2-5.5-1.9-7.1-1.6-15.1 0-19.2 3.9l-2.8 2.7 2.5.3c4.3.5 7.9 2.3 8.6 4.4.5 1.8-.4 11.8-1.1 11.8-.2 0-2.8-1.4-5.7-3.1-10.4-6.2-19.1-9.9-23.3-9.9-4.4 0-8.6 1.8-9.3 3.8-.6 1.8 6.6 8.3 17.3 15.5l9 6.1-4 1.8c-7.5 3.5-23.8.9-26.4-4.1-.4-.9-.5-6.1-.1-11.6.5-6.8.4-10.8-.4-12.4-1.4-3.2-6.2-4.4-14.8-3.8-6.3.4-6.8.3-6.8-1.6 0-1.9.5-1.9 11.3-1.2 12.8.8 19.3-.4 22.8-4.1l2.2-2.4 1.5 2.1c1.2 1.7 2.1 2 5.3 1.5 2.1-.3 6-1.8 8.6-3.2 4.7-2.6 5-2.6 17.8-1.8 22 1.4 27 1.2 30.2-1.2 1.5-1.2 3.7-3.6 4.7-5.4 2.3-3.8 1.9-4.2-6.4-6.7-4.1-1.3-8.9-1.7-19.1-1.6-7.4.1-14.1-.2-14.8-.7-1-.6-.9-1.7.7-5.4l2.1-4.6h7.2c5.8 0 8-.5 12-2.7 5.4-2.9 8.9-7.5 8.9-11.7v-2.6h-54v-3.5c0-4.2-2.9-7.5-6.5-7.5-1.4 0-4.1 1.4-6.2 3.4zm17.5 24.4c1.6 1.1.1 8.6-3 15l-2.1 4.4-8.1-.7c-4.4-.4-8.2-.8-8.3-.9-.2-.2.4-2.1 1.3-4.4.9-2.2 1.4-4.7 1.1-5.5-.7-1.8-14.3-3-24.4-2.1-6.5.6-8.1 1.1-11 3.7-3.1 2.8-3.3 3.1-1.8 4.6 1.3 1.3 3.6 1.6 12 1.4 5.8-.1 10.5 0 10.5.2 0 1.5-9 4.6-14.2 5.1-3.5.2-7.8.7-9.7.9l-3.3.4.7-9.2c.4-5.1.8-9.3.9-9.4.3-.4 27.5-3.1 34.6-3.6 11.5-.7 23.6-.6 24.8.1z"/>
        <path d="M1866.1 1922.5c-11.2 2.5-13.6 5.7-8.3 11.5 3.8 4.3 7.7 4.9 30.7 5 18.2 0 20.3-.2 23.3-2 3.6-2.2 5.5-6 5-9.9-.3-2.6-.5-2.6-15.3-4.3-18.3-2-27-2.1-35.4-.3z"/>
        <path d="M1948.2 1928c-3.9 1.7-9 6-9.5 8.1-.8 2.8 2.3 5.6 7 6.4 11.1 1.9 11.8 2.9 5.1 6.5-2.5 1.4-5.5 3-6.6 3.7-1.8 1.1-2.1.8-4.1-4.6-1.3-3.6-3.7-7.5-6.2-10.1-3.5-3.6-4.5-4.1-7.7-3.8-5.7.5-5.4 3.2 1.4 14.5l5.8 9.5-3.3 9.3c-2.7 7.8-3.1 9.7-2.1 11.5 1.4 2.6 1.7 2.6 18.5-1.9 10.4-2.8 11-2.9 11.3-1.1.5 3-1.5 5.8-5 6.9-1.8.5-11.2 1.9-20.8 3.1-20.6 2.5-25.9 4-30.6 8.6-4.5 4.6-4.5 7.6.2 10.5 3.3 2 4.4 2.1 13.7 1.6 7.1-.4 13.4-1.5 20.7-3.7 12.1-3.6 17.8-4.5 21.4-3.6 2.6.6 2.6.8 2.6 10.1 0 14.8 1.8 24.4 5.1 27.7 2 2 3.7 2.8 6.4 2.8 3.3 0 3.8-.4 5.8-4.8 1.9-4 2.2-7.1 2.7-21.6l.5-17 3.5-.9c9.6-2.5 20.8 1.2 31.3 10.3 3.2 2.7 6.8 5 8 5 4 0 9.5-4.9 17.3-15.3 4.3-5.6 8.2-10.8 8.7-11.5.8-1.1-1.8-1.2-14.4-.6-12.3.5-19.3.2-34.7-1.5-10.7-1.2-20-2.1-20.8-2.1-.8 0-1.4-1-1.4-2.5 0-1.9.5-2.5 2.3-2.5 1.2 0 8.7-.7 16.6-1.7l14.4-1.6 1.9-4.3c1-2.4 3-10.9 4.4-19.1l2.5-14.8-2.5-2.2c-3-2.5-9.7-3.5-21.1-3.1-4.4.1-16.5-.1-27-.5-12.1-.5-19.8-.4-21.3.3zm54.4 15.4c5.3 4.5 2.6 14-5 18-6 3-20.6 3.5-20.6.7 0-2.2 3.4-4 8.7-4.6 6.7-.8 12.3-2.9 12.3-4.5 0-.6-.7-2.4-1.5-4-1.2-2.3-2.3-2.9-6.4-3.5-2.7-.4-6-.4-7.3 0-1.9.6-2.1.5-1-.6 2.1-2.2 7.3-3.7 12.9-3.8 4.1-.1 5.8.4 7.9 2.3zm-48.4 15.3c6.3.6 7 1.6 4 5.2-1.2 1.6-3.6 2.5-8.9 3.3-4 .6-7.5 1-7.7.7-.3-.2-.2-3.2.1-6.6l.6-6.2 3 1.6c1.7.8 5.7 1.8 8.9 2z"/>
        <path d="M858.3 1930c-1.8 1.1-3.3 2.6-3.3 3.3 0 1.5 3.4 4.9 6.7 6.6 4.8 2.5 15.3-2.6 15.3-7.4 0-4.7-12.4-6.4-18.7-2.5z"/>
        <path d="M920.4 1929c-3 1.2-3.6 3.6-2 7.4 3.2 7.7 13.9 11.7 20.3 7.7 3.7-2.4 6.7-6.5 6-8.4-.7-1.9-15.1-7.7-18.9-7.6-1.8 0-4.2.4-5.4.9z"/>
        <path d="M1507.3 1930c-4 2.4-4.1 4.3-.8 7.4 4.7 4.4 13.6 3.8 17.5-1.1 2.4-3.1 2.5-4.6.4-6.7-2.3-2.4-13-2.1-17.1.4z"/>
        <path d="M1875.1 1950.9c-6.6 6.9-9.5 9.2-12.6 10-5.4 1.4-10 .1-15.4-4.6-5.4-4.6-7.5-3.8-7.9 3.1-.2 3.7.3 5.7 2.2 8.9 5.3 8.7 9.2 11.7 15.5 11.7 9.6 0 17-4.5 23.7-14.4l3.4-5.1v55.7l3.4 3.4c4.5 4.5 7.3 4.4 9.2-.1 1.8-4.4 1.8-9.8 0-16.1-.8-2.7-1.7-7.4-2.1-10.4-.4-3-1.6-10.9-2.7-17.5-1.5-9.1-1.9-14.1-1.4-20.7.8-10.1-.1-12.8-4.1-12.8-2 0-4.7 2.1-11.2 8.9z"/>
        <path d="M900.5 1949.8c-3.4 1.4-7.9 1.7-29.5 1.7-23.7 0-25.7.1-28.9 2-3.8 2.2-7.8 7.1-6.8 8.1.4.4 4.4.2 8.9-.4 17.2-2.5 43.7-.6 47.7 3.3 1 1 1.2 3 .6 8.5-.7 6.7-.9 7.1-2.9 6.6-1.1-.3-7.1-1-13.3-1.6-12.2-1.2-25.8-.3-34.8 2.5-2.8.8-5.4 1.5-5.8 1.5-.5 0-.7-1.9-.5-4.3l.3-4.2 25.9-.5c22.4-.4 26-.7 26.9-2.1.6-.9.8-2.3.4-3.2-1.2-3.2-35.8-4.2-47.4-1.5-5.4 1.3-6.3 1.3-6.3.1 0-2.9-3-7.1-6-8.3-2.8-1.1-3.4-1.1-5.8.7-3.6 2.7-3.8 4.8-1.2 9.5 3.3 5.9 2.8 12.8-2 29-4.3 14.5-4.7 17.7-2.8 19.6 1.9 1.9 4.3 1.5 11.2-2 3.6-1.8 6.8-3 7.1-2.7.3.3-1.2 6-3.2 12.7l-3.7 12.2 2.1 2.8c1.4 1.9 3.1 2.8 5.5 3 3.3.3 3.9-.2 8.2-5.5 8.3-10.3 10.5-18.1 7.2-24.5-1.3-2.5-1.3-2.7 1.1-3.3 4.3-1 25-2.3 29.7-1.8l4.6.6-2.5 2.9c-1.4 1.6-2.5 4-2.5 5.3 0 6.4 7.7 26.9 12.4 32.9 3.2 4 12.6-.9 12.6-6.5 0-1.5-1.8-8-4.1-14.4-2.2-6.4-3.9-11.8-3.7-11.9.1-.1 1.8-.7 3.7-1.2 7.8-2.1 9-7.8 8.8-41.9l-.2-25-3.5-.2c-1.9-.1-5.3.5-7.5 1.5zm-10.4 39c-1.2 2.3-2.6 2.5-29.1 4.2-8.5.6-18.1 1.3-21.2 1.6l-5.8.6v-6.2l6.8-.1c3.7 0 16.4-.6 28.2-1.3 11.8-.6 21.6-1.1 21.8-1 .2.1-.1 1.1-.7 2.2z"/>
        <path d="M1549.5 1949.8c-3.4 1.4-7.9 1.7-29.5 1.7-23.7 0-25.7.1-28.9 2-3.8 2.2-7.8 7.1-6.8 8.1.4.4 4.4.2 8.9-.4 15.5-2.2 32.7-1.5 45.1 1.9l4 1-.7 7.7c-.4 4.2-.8 7.8-1 7.9-.1.1-3.1-.3-6.7-.9-11-1.9-32.2-1.3-41.3 1.1-4.4 1.2-8.1 2.1-8.3 2.1-.2 0-.3-1.9-.1-4.3l.3-4.2 25.9-.5c22.4-.4 26-.7 26.9-2.1.6-.9.8-2.3.4-3.2-1.2-3.2-35.8-4.3-47.4-1.5-5.4 1.3-6.3 1.3-6.3.1 0-2.9-3-7.1-6-8.3-2.8-1.1-3.4-1.1-5.8.7-3.6 2.7-3.8 4.5-1.3 10.3 3.3 7.6 2.8 14.7-1.9 29.5-4.3 13.4-4.7 16.4-2.8 18.3 1.9 1.9 4.3 1.5 11.2-2 3.6-1.8 6.8-2.9 7.1-2.6.4.3-.7 4.8-2.3 10-4.5 14.1-4.6 15-2.2 18.1 1.6 2 3 2.7 5.6 2.7 2.9 0 4-.8 7.9-5.8 6.6-8.4 8.8-13.3 8.3-19-.3-2.6-.8-5.4-1.2-6.4-.5-1.1-.2-1.8 1.2-2.2 3.2-1.1 24.8-2.4 29.6-1.9l4.6.6-2.5 2.9c-1.4 1.6-2.5 4-2.5 5.3 0 6.4 7.7 26.9 12.3 32.7 2 2.6 6.1 2.2 9.6-.8 4.1-3.4 4-6.3-.5-18.9-2-5.5-3.8-10.7-4.1-11.6-.3-1.1.6-1.8 3.4-2.5 8.3-2 9.4-7.3 9-44.4l-.2-22.5-3.5-.2c-1.9-.1-5.3.5-7.5 1.5zm-10.4 39c-1.2 2.2-2.9 2.5-27.6 4.2-8.2.5-18 1.3-21.7 1.6l-6.8.5v-6.1l6.8-.1c3.7 0 16.4-.6 28.2-1.3 11.8-.6 21.6-1.1 21.8-1 .2.1-.1 1.1-.7 2.2z"/>
        <path d="M1901.3 1950.1c-1.6 1.6-1.7 8.3-.2 11.1 1.5 2.7 7.1 4.9 10.9 4.2 3.8-.8 6-3.8 6-8.1 0-2.8-.6-3.6-3.9-5.3-5.2-2.6-11.2-3.5-12.8-1.9z"/>
        <path d="M2130 1992.4c-5.8 1.5-11.4 5.7-13.1 9.8-1.6 3.9-.4 6 4.4 7.2 3.2.8 5 .4 13.2-2.8 11.4-4.5 15.5-7.6 15.5-11.6 0-2.3-.5-2.9-3.1-3.4-4.7-.9-11.9-.6-16.9.8z"/>
        <path d="M1378.3 2050.8c-13.8 4.9-21.6 17.6-21.6 35.2 0 23.3 14.3 38.3 35.2 36.8 12-.9 21.2-7.6 24.7-18.1.9-2.6 1.4-5 1.3-5.1-.2-.2-3.1-1.2-6.5-2.3l-6-2-2.7 5.1c-3.4 6.4-7.9 9.6-13.6 9.6-5.1 0-9-1.9-12.4-6-3.4-4-4.7-8.9-4.7-18 0-4.1.5-9.2 1-11.2 1.9-6.6 8.1-12.3 14-12.8 7-.6 8.4-.1 13.7 5.6l5.4 5.7 5.6-1.6c3-.9 5.8-1.9 6.1-2.1 1.2-1.3-3.3-9.8-6.8-13-5.5-5-10.2-6.7-19.5-7.2-6.1-.4-9.2 0-13.2 1.4z"/>
        <path d="M1635 2085.5v35.5h13l.1-23.8.1-23.7 2.9 9c1.6 4.9 4.3 14.8 6 22 1.8 7.1 3.9 13.8 4.7 14.7 1.1 1.3 3 1.8 7.3 1.8 4.5 0 6-.4 6.8-1.8.5-.9 3.4-11.8 6.6-24.2 3.1-12.3 6-23.1 6.5-24 .6-.9 1 8.4 1 24.2v25.8h13v-70.7l-9.6-.1c-10.9 0-12.6.9-14.2 7.5-3.9 15.9-9.6 36.9-10.2 37.6-.4.4-3-7.9-5.9-18.5-2.9-10.6-5.9-20.7-6.6-22.4-1.5-3.6-4.1-4.4-14.6-4.4h-6.9v35.5z"/>
        <path d="M974 2086v35h21.3c11.6 0 22.8-.5 24.7-1 6.9-1.9 13-10.8 13-19 0-5.8-2.1-10.1-6.9-14.2l-4.1-3.5 3-3.8c5.8-7.4 6-15.8.4-22.5-4.9-5.7-6.2-6-29.9-6H974v35zm38.4-19.9c3.3 3.9 3.3 5-.3 8.8-2.9 3.1-2.9 3.1-13.5 3.1H988v-15h21.8l2.6 3.1zm-2.7 25.5c8 1 11 8.9 5.4 14.5-2.9 2.9-3 2.9-15 2.9H988v-18.9l8.8.5c4.8.3 10.6.7 12.9 1z"/>
        <path d="M1431 2086v35h12.8l.3-16.9c.4-15.3.6-17.2 2.5-19.8 4.4-5.9 11.8-6.7 15.2-1.5 1.4 2.2 1.8 5.7 2 20.4l.4 17.8h6.4c6 0 6.4-.1 7-2.6.4-1.5.4-10.7.2-20.5-.6-19.4-1.3-21.9-7.1-26.3-4-2.9-15.2-2.8-21.9.2l-4.8 2.1V2051h-13v35z"/>
        <path d="M1955.5 2054.4c-1.3.9-2 3.1-2.4 8.2-.6 6.4-.8 6.9-3.1 7.2-6.6.7-7 1-7 5.2 0 3.7.2 4 2.9 4h2.8l.5 16.7c.5 18.7 1.4 21.8 7.1 25.4 2.4 1.5 4.3 1.9 7.7 1.5 6-.6 10.2-2.6 9.5-4.4-.3-.7-.5-2.9-.5-4.8 0-3.4-.1-3.5-3.3-2.9-2.2.4-3.7.2-4.5-.7-.6-.8-1.2-6.6-1.4-14.2-.2-11.6-.1-12.9 1.7-14.2 1-.8 2.9-1.4 4.2-1.4 2.1 0 2.3-.4 2.3-5 0-4.5-.2-5-2.2-5-6.4-.1-6.8-.6-6.8-9.1v-7.9h-2.8c-1.6 0-3.6.6-4.7 1.4z"/>
        <path d="M1802.5 2068.9c-3.6.9-9.1 3.7-10 5.1-1 1.6-2.1 1.2-3.3-1.5-1-2.2-1.8-2.5-6.2-2.5h-5v51h13v-15.5c0-16.3.8-20.3 4.7-23.7 3.5-3.1 7.6-3.3 10.9-.5l2.9 2.5.3 18.6.3 18.6h13.9v-18.8c0-10.3-.5-20.4-1-22.4-1.3-4.4-6.6-9.3-11.7-10.7-4.2-1.2-4.5-1.2-8.8-.2z"/>
        <path d="M1055.1 2070c-2.4.5-5.5 2-6.9 3.2-2.3 2.2-5.2 7.5-5.2 9.7 0 .5 2.5 1.3 5.5 1.6 5 .7 5.8.5 8.9-1.9 4.7-3.5 10.9-3.6 13.1-.2 3 4.5.8 6-15 9.7-9.5 2.2-13.1 5.6-14.1 13.3-.8 5.5 2.2 12.3 6.5 14.9 3.6 2.1 10.3 2.2 18.4.2 5.5-1.4 7-1.4 13-.2l6.7 1.5v-21.5c0-23.7-.5-25.9-6.1-28.9-3.7-1.9-18.5-2.7-24.8-1.4zm15.1 38.9c-2.6 3.6-7.7 3.9-11.6.8l-2.9-2.4 1.9-3.1c1.1-2 3.3-3.7 5.9-4.7 7.5-2.7 8-2.6 8.3 2.4.2 3.2-.2 5.2-1.6 7z"/>
        <path d="M1115 2069.9c-10.9 3.6-16.9 11.4-17.8 23.2-.6 9.4 1.7 16.9 7.1 22.2 5 5 10.5 7 19.8 6.9 14.7 0 24.6-9.4 25.7-24.3.8-11.5-4.2-21.5-13.1-26.1-4.6-2.3-17.1-3.4-21.7-1.9zm15.8 13.3c5.4 5 6.6 13.2 3.1 20.5-2.3 4.8-6.1 7.3-11.1 7.3-11 0-15.9-17.7-7.5-26.9 1.2-1.3 3.1-2.7 4.2-3.2 3.1-1.3 8.5-.2 11.3 2.3z"/>
        <path d="M1223.6 2070.5c-4.8 1.7-7 3.9-9 8.7l-1.6 3.6 3.2 1.1c4.9 1.7 8.4 1.3 11.6-1.4 3.7-3.1 10-3.4 12.5-.7 3.9 4.3.9 7-9.8 9.2-14.1 2.9-18.5 6.7-18.5 15.9 0 6.5 2.6 11.6 7 13.8 3.4 1.7 10.1 1.6 17.7-.3 6.3-1.6 9-1.4 18.7 1.3 1.7.5 1.8-.4 1.5-20.4-.4-23.5-1.3-26.9-7.9-30.5-4.3-2.2-19.4-2.5-25.4-.3zm18.8 30.1c.9 3.4-1 9.1-3.4 10.4-3.6 1.9-8 1.2-11.1-1.9-1.6-1.6-2.9-3.4-2.9-3.9 0-1.8 3.9-4.4 8.7-5.7 7-1.9 8-1.8 8.7 1.1z"/>
        <path d="m1274.8 2069.8-3.8.3v50.9h12.8l.4-16.9c.3-15.3.5-17.2 2.4-19.8 4.6-6.2 10.6-6.6 14.8-1 1.9 2.6 2.1 4.4 2.4 20.3l.4 17.4h12.8v-20.5c0-18.3-.2-21-1.9-24.3-2.3-4.5-4.8-6.1-10.5-6.8-3.9-.6-12 1.1-19.9 4.2-.9.3-1.6-.3-1.9-1.4-.6-2.2-2.8-2.8-8-2.4z"/>
        <path d="M1499.3 2070c-6 1.9-12.2 10.5-9.4 13.3.5.5 2.9 1.1 5.3 1.4 3.5.4 4.9 0 7.7-2.1 4.5-3.3 10.2-3.5 13.1-.4 3.5 3.7.9 5.9-10.6 8.9-5.4 1.4-10.9 3.1-12.2 3.8-8.2 4.4-8.2 20.1 0 25.1 4 2.4 10.7 2.6 19.1.4 5.9-1.5 8.6-1.3 18 1.3 1.7.5 1.8-.6 1.5-21.4-.3-23.8-.6-25.2-6.5-29-3.1-2.1-20.6-2.9-26-1.3zm18.7 30.9c0 9.8-6.6 14-13.8 8.8l-3.1-2.4 2.5-3.6c2.5-3.7 6.1-5.4 11.7-5.6 2.3-.1 2.7.3 2.7 2.8z"/>
        <path d="m1549.5 2069.9-3 .6-.3 25.3-.2 25.2h13v-14.8c.1-15.1 1.1-20.4 4.5-24.2 3.8-4.2 11.1-3.2 13.6 1.8.9 1.9 1.4 8.1 1.7 19.9l.4 17.3h12.6l.8-6.7c1-9.9-.2-33.4-2-37.6-3.1-7.4-11.5-9.4-23.7-5.4l-7.6 2.4-2.1-2.4c-2.1-2.4-2.7-2.5-7.7-1.4z"/>
        <path d="M1731.2 2070.4c-10.8 3.5-16.7 12.6-16.6 25.6.1 16.7 9.4 26.1 25.7 26.2 11.7 0 19.6-4.3 24.1-13.4 2.1-4.3 2.6-6.6 2.6-13 0-4.8-.6-9.3-1.6-11.6-1.9-4.7-6.8-9.8-11.9-12.4-5.1-2.7-16.3-3.3-22.3-1.4zm14.7 11.4c8.7 4.4 9.7 20.7 1.6 27-6.6 5.2-16.1.8-18.4-8.4-1.9-7.6.6-15 6.2-18.4 4-2.5 6.2-2.5 10.6-.2z"/>
        <path d="M1849.9 2069.9c-5.9.9-9.2 3.1-11.3 7.4-2.2 4.7-2 5.6 1 6.7 4.2 1.6 7.8 1.1 11.4-1.5 4.4-3.2 10.1-3.4 13-.3 1.1 1.2 2 2.5 2 2.8 0 2-4.5 4.1-12.3 6-4.9 1.1-10.2 2.7-11.8 3.6-8.8 4.5-9.3 20.2-.7 25.4 4 2.4 10.7 2.6 18.7.5 5-1.3 6.7-1.3 13-.1l7.2 1.4-.3-22.2c-.3-24.2-.6-25.3-6.4-28.1-3.6-1.7-17-2.6-23.5-1.6zm15.6 35.8c-.9 3.7-4.1 6.3-7.9 6.3-6.4 0-11.1-6.6-7.1-10 .8-.7 4.5-2 8.2-2.9l6.8-1.7.3 2.9c.2 1.6.1 4.1-.3 5.4z"/>
        <path d="M1902.4 2069.9c-7.2 1.8-11.4 7.1-11.4 14.8 0 4.1.5 5.8 2.6 8.3 3.3 3.9 5.8 5.1 16.4 8 4.7 1.3 9.5 3.2 10.8 4.3l2.2 2.1-2.1 2.2c-4.3 4.6-9.8 4-16.3-1.6-3.3-2.9-4-3.1-8.4-2.5-7.1.9-7.5 1.4-5.2 6.1 5.2 10.5 24.4 14.3 37.9 7.5 5.1-2.6 8.6-9.4 7.8-15.2-1.1-8.2-4.9-10.9-21.2-15.4-5.5-1.5-10.3-3.2-10.7-3.8-1.3-2.1.5-3.6 5.3-4.6 6.5-1.4 6.2-1.5 9.4 1.5 2.6 2.4 3.4 2.6 8.3 2.1 3-.3 5.6-.8 5.9-1.1 1.1-1-.8-5.7-3.5-8.7-1.6-1.8-4.3-3.4-6.7-3.9-4.7-1.1-16.6-1.1-21.1-.1z"/>
        <path d="M1991.6 2070.5c-8.3 2.9-13.4 11-14.3 22.8-1.3 16.9 6.4 27.3 21.6 29.3 6.7.9 14.8-1.6 18.8-5.8 2.8-3 6.3-8.7 6.3-10.4 0-1.7-11.9.5-16.6 3.2-3.7 2-5.6 2.6-7.8 2-3.8-.9-7.6-5.3-7.6-8.7v-2.9h33.3l-.6-7.1c-1.3-15.7-9.7-24-24.2-23.9-2.7.1-6.7.7-8.9 1.5zm15.3 10.8c1.4 1.2 4.1 6.8 4.1 8.7 0 .6-3.7 1-9.6 1h-9.6l.7-2.8c1.9-7.9 9-11.3 14.4-6.9z"/>
        <path d="M2054.4 2070.9c-1.8 1-3.5 2.5-3.9 3.1-.5.8-1.1.4-1.9-1.2-1-2-1.9-2.3-6.6-2.3h-5.5l-.3 25.2-.2 25.3h14v-15.4c0-20.9 1.2-23.5 10.5-23.6h5l1.8-5.1c2.2-6.2 1.7-7-5-7.6-3.6-.3-5.6.1-7.9 1.6z"/>
        <path d="M1155.8 2070.7c-1 .2-1.8.6-1.8.9 0 .2 4.1 11.3 9 24.5 5 13.2 9 24.9 9 26 0 5-5 8.9-11.5 8.9-3.3 0-3.5.2-3.5 3.3 0 1.8.7 4.3 1.6 5.6 1.5 2.1 2.3 2.3 8.8 1.9 8.1-.4 12.5-2.7 15.2-8.1.9-1.7 6.5-16.4 12.4-32.7 12-32.8 11.8-30.8 2.8-30.9-6-.1-6.2.2-12.3 18.8-5.5 16.6-4.7 16.6-10.9-.4-2-5.5-4.5-11.9-5.6-14.3-1.9-4.1-2.1-4.2-6.7-4.1-2.7.1-5.6.3-6.5.6z"/>
        <path d="M2070 2071.2c0 .7 4.1 11.9 9 25 5 13 9 24.7 9 25.8 0 5.1-5 9-11.5 9-3.3 0-3.5.2-3.5 3.3 0 1.8.7 4.3 1.6 5.5 1.3 1.9 2.4 2.2 7.6 2.2 7.1 0 12-2 15.1-6.4 1.2-1.7 7.2-16.8 13.3-33.6 12.4-33.9 12.2-31.8 3.2-31.9-6-.1-6.2.1-12.3 18.9l-4.8 14.5-2.7-6c-1.5-3.3-3.7-9.2-5-13-2.6-8-4.8-12.7-6.4-13.7-1.9-1.3-12.6-.9-12.6.4z"/>
    </g>
</svg>
